# xmcd
#
# Track frame offsets:
#	151
#	13827
#	27098
#	41803
#	53506
#	67118
#	80847
#	93347
#	105102
#	118044
#	130399
#	144233
#	158716
#	173202
#	186142
#	198758
#	210164
#	222740
#
# Disc length: 3111 seconds
#
# Revision: 0
# Processed by: cddbd v1.5.1PL2 Copyright (c) Steve Scherf et al.
# Submitted via: dBpowerAMP V4.0
#
DISCID=f60c2512
DTITLE=Charles Brown - West Coast Blues
DYEAR=2005
DGENRE=Blues
TTITLE0=My Baby's Gone
TTITLE1=Texas Blues
TTITLE2=Homesick Blues
TTITLE3=Groovy Movie Blues
TTITLE4=New Orleans Blues
TTITLE5=Race Track Blues
TTITLE6=Sunny Road
TTITLE7=Soothe Me
TTITLE8=Traveling Blues
TTITLE9=Merry Christmas Baby
TTITLE10=Changeable Woman Blues
TTITLE11=Did You Ever Love A Woman
TTITLE12=Hard Times
TTITLE13=Jilted Blues
TTITLE14=Snuff Dippin' Mama
TTITLE15=Free Lancin' Again
TTITLE16=Tomorrow
TTITLE17=Juke Box Lil
EXTD=
EXTT0=
EXTT1=
EXTT2=
EXTT3=
EXTT4=
EXTT5=
EXTT6=
EXTT7=
EXTT8=
EXTT9=
EXTT10=
EXTT11=
EXTT12=
EXTT13=
EXTT14=
EXTT15=
EXTT16=
EXTT17=
PLAYORDER=
